<svg width="129" height="40" viewBox="0 0 129 40" fill="none" xmlns="http://www.w3.org/2000/svg">
<path d="M68.4255 6L77.8497 21.1017L88.3404 6L96 22.7797L77.8497 39L60 22.7797L68.4255 6Z" stroke="url(#paint0_linear_3_12)"/>
<path d="M9.144 23.336C7.672 23.336 6.352 23 5.184 22.328C4.032 21.656 3.12 20.68 2.448 19.4C1.792 18.104 1.464 16.528 1.464 14.672C1.464 12.816 1.816 11.248 2.52 9.968C3.24 8.672 4.192 7.688 5.376 7.016C6.576 6.344 7.896 6.008 9.336 6.008C10.184 6.008 10.928 6.072 11.568 6.2C12.208 6.328 12.752 6.48 13.2 6.656C13.648 6.832 13.984 7 14.208 7.16L13.608 8.744C13.16 8.424 12.552 8.168 11.784 7.976C11.032 7.768 10.216 7.664 9.336 7.664C8.216 7.664 7.208 7.928 6.312 8.456C5.432 8.984 4.728 9.768 4.2 10.808C3.688 11.848 3.432 13.136 3.432 14.672C3.432 16.096 3.656 17.336 4.104 18.392C4.552 19.448 5.216 20.264 6.096 20.84C6.992 21.416 8.096 21.704 9.408 21.704C10.176 21.704 10.816 21.664 11.328 21.584C11.856 21.488 12.216 21.408 12.408 21.344V15.032H14.28V22.544C13.976 22.672 13.368 22.832 12.456 23.024C11.56 23.232 10.456 23.336 9.144 23.336ZM21.6981 23.264C20.8021 23.264 20.0021 23.136 19.2981 22.88C18.5941 22.624 18.0421 22.208 17.6421 21.632C17.2421 21.056 17.0421 20.296 17.0421 19.352C17.0421 18.44 17.2661 17.704 17.7141 17.144C18.1621 16.568 18.7781 16.152 19.5621 15.896C20.3621 15.64 21.2581 15.512 22.2501 15.512C22.6981 15.512 23.1701 15.552 23.6661 15.632C24.1621 15.712 24.4741 15.784 24.6021 15.848V15.128C24.6021 14.584 24.5301 14.064 24.3861 13.568C24.2581 13.056 23.9861 12.64 23.5701 12.32C23.1541 12 22.5221 11.84 21.6741 11.84C20.7941 11.84 20.1221 11.904 19.6581 12.032C19.1941 12.16 18.8501 12.264 18.6261 12.344L18.3861 10.808C18.6741 10.68 19.1141 10.56 19.7061 10.448C20.2981 10.336 20.9941 10.28 21.7941 10.28C22.9301 10.28 23.8261 10.48 24.4821 10.88C25.1541 11.28 25.6341 11.832 25.9221 12.536C26.2261 13.224 26.3781 14.016 26.3781 14.912V22.712C26.0421 22.792 25.4421 22.904 24.5781 23.048C23.7141 23.192 22.7541 23.264 21.6981 23.264ZM21.9621 21.728C22.5221 21.728 23.0261 21.712 23.4741 21.68C23.9221 21.632 24.2981 21.576 24.6021 21.512V17.336C24.4421 17.256 24.1701 17.176 23.7861 17.096C23.4021 17.016 22.9061 16.976 22.2981 16.976C21.7861 16.976 21.2661 17.032 20.7381 17.144C20.2101 17.256 19.7621 17.48 19.3941 17.816C19.0421 18.152 18.8661 18.656 18.8661 19.328C18.8661 20.224 19.1461 20.848 19.7061 21.2C20.2661 21.552 21.0181 21.728 21.9621 21.728ZM30.2582 23V11C30.7542 10.872 31.3862 10.728 32.1542 10.568C32.9222 10.408 33.8742 10.328 35.0102 10.328C35.8102 10.328 36.4902 10.44 37.0502 10.664C37.6262 10.888 38.0902 11.224 38.4422 11.672C38.5862 11.56 38.8422 11.4 39.2102 11.192C39.5782 10.968 40.0422 10.768 40.6022 10.592C41.1782 10.416 41.8262 10.328 42.5462 10.328C43.8262 10.328 44.7862 10.576 45.4262 11.072C46.0822 11.552 46.5222 12.224 46.7462 13.088C46.9702 13.936 47.0822 14.92 47.0822 16.04V23H45.2822V16.544C45.2822 15.488 45.2102 14.624 45.0662 13.952C44.9222 13.264 44.6422 12.752 44.2262 12.416C43.8102 12.08 43.1942 11.912 42.3782 11.912C41.7862 11.912 41.2662 11.984 40.8182 12.128C40.3862 12.256 40.0262 12.408 39.7382 12.584C39.4662 12.76 39.2662 12.896 39.1382 12.992C39.2822 13.392 39.3862 13.848 39.4502 14.36C39.5302 14.872 39.5702 15.408 39.5702 15.968V23H37.7702V16.544C37.7702 15.488 37.6982 14.624 37.5542 13.952C37.4102 13.264 37.1222 12.752 36.6902 12.416C36.2742 12.08 35.6422 11.912 34.7942 11.912C34.3302 11.912 33.9062 11.936 33.5222 11.984C33.1542 12.016 32.8422 12.056 32.5862 12.104C32.3462 12.152 32.1702 12.192 32.0582 12.224V23H30.2582ZM56.4249 23.264C54.9689 23.264 53.7849 22.984 52.8729 22.424C51.9769 21.864 51.3129 21.096 50.8809 20.12C50.4649 19.144 50.2569 18.032 50.2569 16.784C50.2569 15.328 50.5209 14.12 51.0489 13.16C51.5769 12.2 52.2569 11.48 53.0889 11C53.9369 10.52 54.8249 10.28 55.7529 10.28C56.7929 10.28 57.6889 10.504 58.4409 10.952C59.2089 11.384 59.8009 12.056 60.2169 12.968C60.6329 13.864 60.8409 15.008 60.8409 16.4C60.8409 16.512 60.8329 16.648 60.8169 16.808C60.8169 16.952 60.8089 17.088 60.7929 17.216H52.1289C52.1929 18.624 52.5689 19.72 53.2569 20.504C53.9609 21.272 55.0489 21.656 56.5209 21.656C57.3369 21.656 58.0009 21.584 58.5129 21.44C59.0409 21.28 59.4169 21.144 59.6409 21.032L59.9529 22.544C59.7289 22.672 59.2889 22.824 58.6329 23C57.9929 23.176 57.2569 23.264 56.4249 23.264ZM52.1769 15.752H59.0169C59.0009 14.936 58.8649 14.24 58.6089 13.664C58.3529 13.072 57.9849 12.624 57.5049 12.32C57.0409 12 56.4649 11.84 55.7769 11.84C55.0729 11.84 54.4569 12.024 53.9289 12.392C53.4009 12.76 52.9849 13.24 52.6809 13.832C52.3929 14.424 52.2249 15.064 52.1769 15.752ZM97.1254 23V10.568H98.9254V23H97.1254ZM98.0374 7.592C97.6854 7.592 97.3814 7.472 97.1254 7.232C96.8854 6.992 96.7654 6.672 96.7654 6.272C96.7654 5.888 96.8854 5.576 97.1254 5.336C97.3814 5.096 97.6854 4.976 98.0374 4.976C98.3894 4.976 98.6854 5.096 98.9254 5.336C99.1814 5.576 99.3094 5.888 99.3094 6.272C99.3094 6.672 99.1814 6.992 98.9254 7.232C98.6854 7.472 98.3894 7.592 98.0374 7.592ZM102.961 23V11C103.457 10.872 104.105 10.728 104.905 10.568C105.705 10.408 106.665 10.328 107.785 10.328C109.081 10.328 110.089 10.568 110.809 11.048C111.529 11.528 112.033 12.2 112.321 13.064C112.625 13.912 112.777 14.904 112.777 16.04V23H110.977V16.544C110.977 15.408 110.873 14.504 110.665 13.832C110.457 13.16 110.105 12.672 109.609 12.368C109.113 12.064 108.425 11.912 107.545 11.912C106.873 11.912 106.281 11.952 105.769 12.032C105.257 12.112 104.921 12.176 104.761 12.224V23H102.961ZM122.096 23.288C120.88 23.288 119.808 23.032 118.88 22.52C117.952 21.992 117.232 21.248 116.72 20.288C116.208 19.312 115.952 18.152 115.952 16.808C115.952 15.528 116.168 14.4 116.6 13.424C117.048 12.448 117.688 11.688 118.52 11.144C119.368 10.584 120.384 10.304 121.568 10.304C122.336 10.304 123.008 10.416 123.584 10.64C124.176 10.848 124.616 11.056 124.904 11.264V4.688L126.68 4.376V22.616C126.376 22.712 126 22.816 125.552 22.928C125.104 23.024 124.592 23.104 124.016 23.168C123.456 23.248 122.816 23.288 122.096 23.288ZM122.12 21.68C122.824 21.68 123.4 21.648 123.848 21.584C124.312 21.504 124.664 21.432 124.904 21.368V12.944C124.632 12.72 124.216 12.496 123.656 12.272C123.096 12.032 122.464 11.912 121.76 11.912C121.04 11.912 120.424 12.04 119.912 12.296C119.416 12.536 119.008 12.88 118.688 13.328C118.384 13.776 118.16 14.296 118.016 14.888C117.888 15.48 117.824 16.112 117.824 16.784C117.824 17.824 118 18.712 118.352 19.448C118.72 20.168 119.224 20.72 119.864 21.104C120.52 21.488 121.272 21.68 122.12 21.68Z" fill="url(#paint1_linear_3_12)"/>
<defs>
<linearGradient id="paint0_linear_3_12" x1="63" y1="50" x2="77.8035" y2="-12.497" gradientUnits="userSpaceOnUse">
<stop stop-color="white"/>
<stop offset="1" stop-color="#009F18"/>
</linearGradient>
<linearGradient id="paint1_linear_3_12" x1="0" y1="14.5" x2="129" y2="14.5" gradientUnits="userSpaceOnUse">
<stop stop-color="white"/>
<stop offset="1" stop-color="#009F18"/>
</linearGradient>
</defs>
</svg>
