<svg width="500" height="142" viewBox="0 0 500 142" fill="none" xmlns="http://www.w3.org/2000/svg">
<mask id="path-1-outside-1_5_2" maskUnits="userSpaceOnUse" x="-1" y="0" width="501" height="142" fill="black">
<rect fill="white" x="-1" width="501" height="142"/>
<path d="M266.849 8.47274L304.405 68.6632L346.212 8.47274L376.736 75.351L304.405 140L233.272 75.351L266.849 8.47274Z"/>
<path d="M30.6056 77.5684C24.7395 77.5684 19.4792 76.2292 14.8246 73.5508C10.2338 70.8725 6.59934 66.9824 3.92134 61.8808C1.30711 56.7153 0 50.4339 0 43.0365C0 35.6391 1.40276 29.3896 4.20827 24.2879C7.07755 19.1225 10.8714 15.2006 15.5897 12.5222C20.3719 9.84381 25.6322 8.50462 31.3708 8.50462C34.7501 8.50462 37.715 8.7597 40.2655 9.26987C42.816 9.78004 44.9839 10.3859 46.7692 11.0873C48.5545 11.7888 49.8935 12.4584 50.7862 13.0961L48.3951 19.4094C46.6098 18.134 44.1869 17.1137 41.1263 16.3484C38.1295 15.5194 34.8776 15.1049 31.3708 15.1049C26.9074 15.1049 22.8904 16.1571 19.3198 18.2616C15.8129 20.366 13.0074 23.4908 10.9032 27.6359C8.86288 31.781 7.84269 36.9145 7.84269 43.0365C7.84269 48.7121 8.73535 53.6543 10.5207 57.8632C12.306 62.0721 14.9521 65.3244 18.459 67.6201C22.0297 69.9159 26.4292 71.0638 31.6577 71.0638C34.7182 71.0638 37.2687 70.9043 39.3091 70.5855C41.4132 70.2029 42.8479 69.884 43.613 69.6289V44.4713H51.0731V74.4117C49.8616 74.9219 47.4387 75.5596 43.8043 76.3249C40.2336 77.1539 35.8341 77.5684 30.6056 77.5684Z"/>
<path d="M80.6349 77.2814C77.0642 77.2814 73.8761 76.7713 71.0706 75.7509C68.2651 74.7306 66.0653 73.0726 64.4713 70.7768C62.8772 68.4811 62.0802 65.4519 62.0802 61.6895C62.0802 58.0545 62.9729 55.1211 64.7582 52.8891C66.5435 50.5933 68.9984 48.9353 72.1227 47.915C75.3108 46.8946 78.8814 46.3845 82.8347 46.3845C84.62 46.3845 86.501 46.5439 88.4776 46.8628C90.4542 47.1816 91.6975 47.4686 92.2076 47.7237V44.854C92.2076 42.6858 91.9207 40.6132 91.3468 38.6363C90.8367 36.5957 89.7528 34.9376 88.095 33.6622C86.4372 32.3868 83.9186 31.7491 80.5392 31.7491C77.0323 31.7491 74.3544 32.0042 72.5053 32.5143C70.6562 33.0245 69.2853 33.439 68.3926 33.7579L67.4362 27.6359C68.5839 27.1257 70.3374 26.6474 72.6965 26.201C75.0557 25.7546 77.8294 25.5314 81.0175 25.5314C85.5445 25.5314 89.1152 26.3286 91.7294 27.9228C94.4074 29.5171 96.3203 31.7172 97.468 34.5231C98.6794 37.2652 99.2852 40.4219 99.2852 43.9931V75.0813C97.9462 75.4002 95.5551 75.8466 92.112 76.4205C88.6689 76.9945 84.8431 77.2814 80.6349 77.2814ZM81.6869 71.1594C83.9186 71.1594 85.9271 71.0957 87.7124 70.9681C89.4978 70.7768 90.9962 70.5536 92.2076 70.2985V53.6543C91.57 53.3355 90.4861 53.0166 88.9558 52.6978C87.4255 52.3789 85.4489 52.2195 83.0259 52.2195C80.9856 52.2195 78.9133 52.4427 76.8092 52.8891C74.705 53.3355 72.9197 54.2283 71.4532 55.5675C70.0504 56.9067 69.3491 58.9154 69.3491 61.5938C69.3491 65.165 70.4649 67.652 72.6965 69.055C74.9282 70.458 77.925 71.1594 81.6869 71.1594Z"/>
<path d="M114.748 76.2292V28.4011C116.724 27.8909 119.243 27.317 122.304 26.6793C125.364 26.0416 129.158 25.7227 133.685 25.7227C136.873 25.7227 139.583 26.1691 141.815 27.0619C144.11 27.9547 145.959 29.2939 147.362 31.0795C147.936 30.6331 148.956 29.9954 150.423 29.1664C151.889 28.2736 153.738 27.4764 155.97 26.775C158.265 26.0735 160.848 25.7227 163.717 25.7227C168.818 25.7227 172.644 26.7112 175.194 28.6881C177.808 30.6012 179.562 33.2796 180.454 36.7232C181.347 40.103 181.793 44.025 181.793 48.4889V76.2292H174.62V50.4977C174.62 46.2888 174.333 42.8452 173.759 40.1668C173.185 37.4247 172.07 35.384 170.412 34.0448C168.754 32.7056 166.299 32.036 163.047 32.036C160.688 32.036 158.616 32.323 156.831 32.897C155.109 33.4071 153.674 34.0129 152.527 34.7144C151.443 35.4159 150.646 35.9579 150.136 36.3406C150.709 37.9348 151.124 39.7523 151.379 41.793C151.698 43.8336 151.857 45.97 151.857 48.2019V76.2292H144.684V50.4977C144.684 46.2888 144.397 42.8452 143.823 40.1668C143.249 37.4247 142.102 35.384 140.38 34.0448C138.722 32.7056 136.204 32.036 132.824 32.036C130.975 32.036 129.286 32.1317 127.755 32.323C126.289 32.4506 125.045 32.61 124.025 32.8013C123.069 32.9926 122.367 33.152 121.921 33.2796V76.2292H114.748Z"/>
<path d="M219.025 77.2814C213.223 77.2814 208.504 76.1654 204.87 73.9335C201.299 71.7015 198.653 68.6405 196.932 64.7505C195.274 60.8604 194.445 56.4284 194.445 51.4543C194.445 45.6511 195.497 40.8364 197.601 37.0102C199.705 33.1839 202.415 30.3142 205.731 28.4011C209.11 26.488 212.649 25.5314 216.347 25.5314C220.492 25.5314 224.062 26.4242 227.059 28.2098C230.12 29.9316 232.479 32.61 234.137 36.2449C235.794 39.8161 236.623 44.3757 236.623 49.9238C236.623 50.3701 236.592 50.9122 236.528 51.5499C236.528 52.1238 236.496 52.6659 236.432 53.1761H201.905C202.16 58.7879 203.659 63.1562 206.4 66.281C209.206 69.342 213.542 70.8725 219.408 70.8725C222.66 70.8725 225.306 70.5855 227.346 70.0116C229.45 69.3738 230.949 68.8318 231.841 68.3854L233.085 74.4117C232.192 74.9219 230.438 75.5277 227.824 76.2292C225.274 76.9307 222.341 77.2814 219.025 77.2814ZM202.096 47.341H229.355C229.291 44.0887 228.749 41.3147 227.729 39.0189C226.708 36.6594 225.242 34.8738 223.329 33.6622C221.48 32.3868 219.185 31.7491 216.443 31.7491C213.637 31.7491 211.182 32.4824 209.078 33.9492C206.974 35.4159 205.316 37.329 204.105 39.6885C202.957 42.0481 202.288 44.5989 202.096 47.341Z"/>
<path d="M381.221 76.2292V26.6793H388.394V76.2292H381.221ZM384.855 14.8179C383.452 14.8179 382.241 14.3396 381.221 13.3831C380.264 12.4265 379.786 11.1511 379.786 9.55684C379.786 8.02634 380.264 6.78281 381.221 5.82624C382.241 4.86968 383.452 4.3914 384.855 4.3914C386.258 4.3914 387.437 4.86968 388.394 5.82624C389.414 6.78281 389.924 8.02634 389.924 9.55684C389.924 11.1511 389.414 12.4265 388.394 13.3831C387.437 14.3396 386.258 14.8179 384.855 14.8179Z"/>
<path d="M404.478 76.2292V28.4011C406.454 27.8909 409.036 27.317 412.225 26.6793C415.413 26.0416 419.238 25.7227 423.702 25.7227C428.866 25.7227 432.883 26.6793 435.753 28.5924C438.622 30.5055 440.63 33.1839 441.778 36.6275C442.99 40.0074 443.595 43.9612 443.595 48.4889V76.2292H436.422V50.4977C436.422 45.97 436.008 42.3669 435.179 39.6885C434.35 37.0102 432.947 35.0652 430.97 33.8535C428.994 32.6419 426.252 32.036 422.745 32.036C420.067 32.036 417.708 32.1955 415.668 32.5143C413.627 32.8332 412.288 33.0883 411.651 33.2796V76.2292H404.478Z"/>
<path d="M480.732 77.3771C475.886 77.3771 471.614 76.3567 467.916 74.3161C464.218 72.2116 461.349 69.2463 459.308 65.4201C457.268 61.53 456.248 56.9067 456.248 51.5499C456.248 46.4482 457.109 41.9524 458.83 38.0624C460.615 34.1724 463.166 31.1433 466.482 28.975C469.861 26.7431 473.91 25.6271 478.628 25.6271C481.689 25.6271 484.367 26.0735 486.662 26.9663C489.021 27.7953 490.775 28.6243 491.922 29.4533V3.24353L499 2V74.6987C497.789 75.0813 496.29 75.4958 494.505 75.9422C492.719 76.3249 490.679 76.6437 488.384 76.8988C486.152 77.2177 483.602 77.3771 480.732 77.3771ZM480.828 70.9681C483.633 70.9681 485.929 70.8406 487.714 70.5855C489.563 70.2666 490.966 69.9797 491.922 69.7246V36.1493C490.838 35.2565 489.181 34.3637 486.949 33.4709C484.717 32.5143 482.199 32.036 479.393 32.036C476.524 32.036 474.069 32.5462 472.029 33.5665C470.052 34.5231 468.426 35.8942 467.151 37.6798C465.94 39.4653 465.047 41.5379 464.473 43.8974C463.963 46.2569 463.708 48.7759 463.708 51.4543C463.708 55.5994 464.409 59.1386 465.812 62.0721C467.279 64.9418 469.287 67.1419 471.838 68.6724C474.452 70.2029 477.449 70.9681 480.828 70.9681Z"/>
</mask>
<path d="M30.6056 77.5684C24.7395 77.5684 19.4792 76.2292 14.8246 73.5508C10.2338 70.8725 6.59934 66.9824 3.92134 61.8808C1.30711 56.7153 0 50.4339 0 43.0365C0 35.6391 1.40276 29.3896 4.20827 24.2879C7.07755 19.1225 10.8714 15.2006 15.5897 12.5222C20.3719 9.84381 25.6322 8.50462 31.3708 8.50462C34.7501 8.50462 37.715 8.7597 40.2655 9.26987C42.816 9.78004 44.9839 10.3859 46.7692 11.0873C48.5545 11.7888 49.8935 12.4584 50.7862 13.0961L48.3951 19.4094C46.6098 18.134 44.1869 17.1137 41.1263 16.3484C38.1295 15.5194 34.8776 15.1049 31.3708 15.1049C26.9074 15.1049 22.8904 16.1571 19.3198 18.2616C15.8129 20.366 13.0074 23.4908 10.9032 27.6359C8.86288 31.781 7.84269 36.9145 7.84269 43.0365C7.84269 48.7121 8.73535 53.6543 10.5207 57.8632C12.306 62.0721 14.9521 65.3244 18.459 67.6201C22.0297 69.9159 26.4292 71.0638 31.6577 71.0638C34.7182 71.0638 37.2687 70.9043 39.3091 70.5855C41.4132 70.2029 42.8479 69.884 43.613 69.6289V44.4713H51.0731V74.4117C49.8616 74.9219 47.4387 75.5596 43.8043 76.3249C40.2336 77.1539 35.8341 77.5684 30.6056 77.5684Z" fill="url(#paint0_linear_5_2)"/>
<path d="M80.6349 77.2814C77.0642 77.2814 73.8761 76.7713 71.0706 75.7509C68.2651 74.7306 66.0653 73.0726 64.4713 70.7768C62.8772 68.4811 62.0802 65.4519 62.0802 61.6895C62.0802 58.0545 62.9729 55.1211 64.7582 52.8891C66.5435 50.5933 68.9984 48.9353 72.1227 47.915C75.3108 46.8946 78.8814 46.3845 82.8347 46.3845C84.62 46.3845 86.501 46.5439 88.4776 46.8628C90.4542 47.1816 91.6975 47.4686 92.2076 47.7237V44.854C92.2076 42.6858 91.9207 40.6132 91.3468 38.6363C90.8367 36.5957 89.7528 34.9376 88.095 33.6622C86.4372 32.3868 83.9186 31.7491 80.5392 31.7491C77.0323 31.7491 74.3544 32.0042 72.5053 32.5143C70.6562 33.0245 69.2853 33.439 68.3926 33.7579L67.4362 27.6359C68.5839 27.1257 70.3374 26.6474 72.6965 26.201C75.0557 25.7546 77.8294 25.5314 81.0175 25.5314C85.5445 25.5314 89.1152 26.3286 91.7294 27.9228C94.4074 29.5171 96.3203 31.7172 97.468 34.5231C98.6794 37.2652 99.2852 40.4219 99.2852 43.9931V75.0813C97.9462 75.4002 95.5551 75.8466 92.112 76.4205C88.6689 76.9945 84.8431 77.2814 80.6349 77.2814ZM81.6869 71.1594C83.9186 71.1594 85.9271 71.0957 87.7124 70.9681C89.4978 70.7768 90.9962 70.5536 92.2076 70.2985V53.6543C91.57 53.3355 90.4861 53.0166 88.9558 52.6978C87.4255 52.3789 85.4489 52.2195 83.0259 52.2195C80.9856 52.2195 78.9133 52.4427 76.8092 52.8891C74.705 53.3355 72.9197 54.2283 71.4532 55.5675C70.0504 56.9067 69.3491 58.9154 69.3491 61.5938C69.3491 65.165 70.4649 67.652 72.6965 69.055C74.9282 70.458 77.925 71.1594 81.6869 71.1594Z" fill="url(#paint1_linear_5_2)"/>
<path d="M114.748 76.2292V28.4011C116.724 27.8909 119.243 27.317 122.304 26.6793C125.364 26.0416 129.158 25.7227 133.685 25.7227C136.873 25.7227 139.583 26.1691 141.815 27.0619C144.11 27.9547 145.959 29.2939 147.362 31.0795C147.936 30.6331 148.956 29.9954 150.423 29.1664C151.889 28.2736 153.738 27.4764 155.97 26.775C158.265 26.0735 160.848 25.7227 163.717 25.7227C168.818 25.7227 172.644 26.7112 175.194 28.6881C177.808 30.6012 179.562 33.2796 180.454 36.7232C181.347 40.103 181.793 44.025 181.793 48.4889V76.2292H174.62V50.4977C174.62 46.2888 174.333 42.8452 173.759 40.1668C173.185 37.4247 172.07 35.384 170.412 34.0448C168.754 32.7056 166.299 32.036 163.047 32.036C160.688 32.036 158.616 32.323 156.831 32.897C155.109 33.4071 153.674 34.0129 152.527 34.7144C151.443 35.4159 150.646 35.9579 150.136 36.3406C150.709 37.9348 151.124 39.7523 151.379 41.793C151.698 43.8336 151.857 45.97 151.857 48.2019V76.2292H144.684V50.4977C144.684 46.2888 144.397 42.8452 143.823 40.1668C143.249 37.4247 142.102 35.384 140.38 34.0448C138.722 32.7056 136.204 32.036 132.824 32.036C130.975 32.036 129.286 32.1317 127.755 32.323C126.289 32.4506 125.045 32.61 124.025 32.8013C123.069 32.9926 122.367 33.152 121.921 33.2796V76.2292H114.748Z" fill="url(#paint2_linear_5_2)"/>
<path d="M219.025 77.2814C213.223 77.2814 208.504 76.1654 204.87 73.9335C201.299 71.7015 198.653 68.6405 196.932 64.7505C195.274 60.8604 194.445 56.4284 194.445 51.4543C194.445 45.6511 195.497 40.8364 197.601 37.0102C199.705 33.1839 202.415 30.3142 205.731 28.4011C209.11 26.488 212.649 25.5314 216.347 25.5314C220.492 25.5314 224.062 26.4242 227.059 28.2098C230.12 29.9316 232.479 32.61 234.137 36.2449C235.794 39.8161 236.623 44.3757 236.623 49.9238C236.623 50.3701 236.592 50.9122 236.528 51.5499C236.528 52.1238 236.496 52.6659 236.432 53.1761H201.905C202.16 58.7879 203.659 63.1562 206.4 66.281C209.206 69.342 213.542 70.8725 219.408 70.8725C222.66 70.8725 225.306 70.5855 227.346 70.0116C229.45 69.3738 230.949 68.8318 231.841 68.3854L233.085 74.4117C232.192 74.9219 230.438 75.5277 227.824 76.2292C225.274 76.9307 222.341 77.2814 219.025 77.2814ZM202.096 47.341H229.355C229.291 44.0887 228.749 41.3147 227.729 39.0189C226.708 36.6594 225.242 34.8738 223.329 33.6622C221.48 32.3868 219.185 31.7491 216.443 31.7491C213.637 31.7491 211.182 32.4824 209.078 33.9492C206.974 35.4159 205.316 37.329 204.105 39.6885C202.957 42.0481 202.288 44.5989 202.096 47.341Z" fill="url(#paint3_linear_5_2)"/>
<path d="M381.221 76.2292V26.6793H388.394V76.2292H381.221ZM384.855 14.8179C383.452 14.8179 382.241 14.3396 381.221 13.3831C380.264 12.4265 379.786 11.1511 379.786 9.55684C379.786 8.02634 380.264 6.78281 381.221 5.82624C382.241 4.86968 383.452 4.3914 384.855 4.3914C386.258 4.3914 387.437 4.86968 388.394 5.82624C389.414 6.78281 389.924 8.02634 389.924 9.55684C389.924 11.1511 389.414 12.4265 388.394 13.3831C387.437 14.3396 386.258 14.8179 384.855 14.8179Z" fill="url(#paint4_linear_5_2)"/>
<path d="M404.478 76.2292V28.4011C406.454 27.8909 409.036 27.317 412.225 26.6793C415.413 26.0416 419.238 25.7227 423.702 25.7227C428.866 25.7227 432.883 26.6793 435.753 28.5924C438.622 30.5055 440.63 33.1839 441.778 36.6275C442.99 40.0074 443.595 43.9612 443.595 48.4889V76.2292H436.422V50.4977C436.422 45.97 436.008 42.3669 435.179 39.6885C434.35 37.0102 432.947 35.0652 430.97 33.8535C428.994 32.6419 426.252 32.036 422.745 32.036C420.067 32.036 417.708 32.1955 415.668 32.5143C413.627 32.8332 412.288 33.0883 411.651 33.2796V76.2292H404.478Z" fill="url(#paint5_linear_5_2)"/>
<path d="M480.732 77.3771C475.886 77.3771 471.614 76.3567 467.916 74.3161C464.218 72.2116 461.349 69.2463 459.308 65.4201C457.268 61.53 456.248 56.9067 456.248 51.5499C456.248 46.4482 457.109 41.9524 458.83 38.0624C460.615 34.1724 463.166 31.1433 466.482 28.975C469.861 26.7431 473.91 25.6271 478.628 25.6271C481.689 25.6271 484.367 26.0735 486.662 26.9663C489.021 27.7953 490.775 28.6243 491.922 29.4533V3.24353L499 2V74.6987C497.789 75.0813 496.29 75.4958 494.505 75.9422C492.719 76.3249 490.679 76.6437 488.384 76.8988C486.152 77.2177 483.602 77.3771 480.732 77.3771ZM480.828 70.9681C483.633 70.9681 485.929 70.8406 487.714 70.5855C489.563 70.2666 490.966 69.9797 491.922 69.7246V36.1493C490.838 35.2565 489.181 34.3637 486.949 33.4709C484.717 32.5143 482.199 32.036 479.393 32.036C476.524 32.036 474.069 32.5462 472.029 33.5665C470.052 34.5231 468.426 35.8942 467.151 37.6798C465.94 39.4653 465.047 41.5379 464.473 43.8974C463.963 46.2569 463.708 48.7759 463.708 51.4543C463.708 55.5994 464.409 59.1386 465.812 62.0721C467.279 64.9418 469.287 67.1419 471.838 68.6724C474.452 70.2029 477.449 70.9681 480.828 70.9681Z" fill="url(#paint6_linear_5_2)"/>
<path d="M266.849 8.47274L304.405 68.6632L346.212 8.47274L376.736 75.351L304.405 140L233.272 75.351L266.849 8.47274Z" stroke="url(#paint7_linear_5_2)" stroke-width="2" mask="url(#path-1-outside-1_5_2)"/>
<path d="M30.6056 77.5684C24.7395 77.5684 19.4792 76.2292 14.8246 73.5508C10.2338 70.8725 6.59934 66.9824 3.92134 61.8808C1.30711 56.7153 0 50.4339 0 43.0365C0 35.6391 1.40276 29.3896 4.20827 24.2879C7.07755 19.1225 10.8714 15.2006 15.5897 12.5222C20.3719 9.84381 25.6322 8.50462 31.3708 8.50462C34.7501 8.50462 37.715 8.7597 40.2655 9.26987C42.816 9.78004 44.9839 10.3859 46.7692 11.0873C48.5545 11.7888 49.8935 12.4584 50.7862 13.0961L48.3951 19.4094C46.6098 18.134 44.1869 17.1137 41.1263 16.3484C38.1295 15.5194 34.8776 15.1049 31.3708 15.1049C26.9074 15.1049 22.8904 16.1571 19.3198 18.2616C15.8129 20.366 13.0074 23.4908 10.9032 27.6359C8.86288 31.781 7.84269 36.9145 7.84269 43.0365C7.84269 48.7121 8.73535 53.6543 10.5207 57.8632C12.306 62.0721 14.9521 65.3244 18.459 67.6201C22.0297 69.9159 26.4292 71.0638 31.6577 71.0638C34.7182 71.0638 37.2687 70.9043 39.3091 70.5855C41.4132 70.2029 42.8479 69.884 43.613 69.6289V44.4713H51.0731V74.4117C49.8616 74.9219 47.4387 75.5596 43.8043 76.3249C40.2336 77.1539 35.8341 77.5684 30.6056 77.5684Z" stroke="url(#paint8_linear_5_2)" stroke-width="2" mask="url(#path-1-outside-1_5_2)"/>
<path d="M80.6349 77.2814C77.0642 77.2814 73.8761 76.7713 71.0706 75.7509C68.2651 74.7306 66.0653 73.0726 64.4713 70.7768C62.8772 68.4811 62.0802 65.4519 62.0802 61.6895C62.0802 58.0545 62.9729 55.1211 64.7582 52.8891C66.5435 50.5933 68.9984 48.9353 72.1227 47.915C75.3108 46.8946 78.8814 46.3845 82.8347 46.3845C84.62 46.3845 86.501 46.5439 88.4776 46.8628C90.4542 47.1816 91.6975 47.4686 92.2076 47.7237V44.854C92.2076 42.6858 91.9207 40.6132 91.3468 38.6363C90.8367 36.5957 89.7528 34.9376 88.095 33.6622C86.4372 32.3868 83.9186 31.7491 80.5392 31.7491C77.0323 31.7491 74.3544 32.0042 72.5053 32.5143C70.6562 33.0245 69.2853 33.439 68.3926 33.7579L67.4362 27.6359C68.5839 27.1257 70.3374 26.6474 72.6965 26.201C75.0557 25.7546 77.8294 25.5314 81.0175 25.5314C85.5445 25.5314 89.1152 26.3286 91.7294 27.9228C94.4074 29.5171 96.3203 31.7172 97.468 34.5231C98.6794 37.2652 99.2852 40.4219 99.2852 43.9931V75.0813C97.9462 75.4002 95.5551 75.8466 92.112 76.4205C88.6689 76.9945 84.8431 77.2814 80.6349 77.2814ZM81.6869 71.1594C83.9186 71.1594 85.9271 71.0957 87.7124 70.9681C89.4978 70.7768 90.9962 70.5536 92.2076 70.2985V53.6543C91.57 53.3355 90.4861 53.0166 88.9558 52.6978C87.4255 52.3789 85.4489 52.2195 83.0259 52.2195C80.9856 52.2195 78.9133 52.4427 76.8092 52.8891C74.705 53.3355 72.9197 54.2283 71.4532 55.5675C70.0504 56.9067 69.3491 58.9154 69.3491 61.5938C69.3491 65.165 70.4649 67.652 72.6965 69.055C74.9282 70.458 77.925 71.1594 81.6869 71.1594Z" stroke="url(#paint9_linear_5_2)" stroke-width="2" mask="url(#path-1-outside-1_5_2)"/>
<path d="M114.748 76.2292V28.4011C116.724 27.8909 119.243 27.317 122.304 26.6793C125.364 26.0416 129.158 25.7227 133.685 25.7227C136.873 25.7227 139.583 26.1691 141.815 27.0619C144.11 27.9547 145.959 29.2939 147.362 31.0795C147.936 30.6331 148.956 29.9954 150.423 29.1664C151.889 28.2736 153.738 27.4764 155.97 26.775C158.265 26.0735 160.848 25.7227 163.717 25.7227C168.818 25.7227 172.644 26.7112 175.194 28.6881C177.808 30.6012 179.562 33.2796 180.454 36.7232C181.347 40.103 181.793 44.025 181.793 48.4889V76.2292H174.62V50.4977C174.62 46.2888 174.333 42.8452 173.759 40.1668C173.185 37.4247 172.07 35.384 170.412 34.0448C168.754 32.7056 166.299 32.036 163.047 32.036C160.688 32.036 158.616 32.323 156.831 32.897C155.109 33.4071 153.674 34.0129 152.527 34.7144C151.443 35.4159 150.646 35.9579 150.136 36.3406C150.709 37.9348 151.124 39.7523 151.379 41.793C151.698 43.8336 151.857 45.97 151.857 48.2019V76.2292H144.684V50.4977C144.684 46.2888 144.397 42.8452 143.823 40.1668C143.249 37.4247 142.102 35.384 140.38 34.0448C138.722 32.7056 136.204 32.036 132.824 32.036C130.975 32.036 129.286 32.1317 127.755 32.323C126.289 32.4506 125.045 32.61 124.025 32.8013C123.069 32.9926 122.367 33.152 121.921 33.2796V76.2292H114.748Z" stroke="url(#paint10_linear_5_2)" stroke-width="2" mask="url(#path-1-outside-1_5_2)"/>
<path d="M219.025 77.2814C213.223 77.2814 208.504 76.1654 204.87 73.9335C201.299 71.7015 198.653 68.6405 196.932 64.7505C195.274 60.8604 194.445 56.4284 194.445 51.4543C194.445 45.6511 195.497 40.8364 197.601 37.0102C199.705 33.1839 202.415 30.3142 205.731 28.4011C209.11 26.488 212.649 25.5314 216.347 25.5314C220.492 25.5314 224.062 26.4242 227.059 28.2098C230.12 29.9316 232.479 32.61 234.137 36.2449C235.794 39.8161 236.623 44.3757 236.623 49.9238C236.623 50.3701 236.592 50.9122 236.528 51.5499C236.528 52.1238 236.496 52.6659 236.432 53.1761H201.905C202.16 58.7879 203.659 63.1562 206.4 66.281C209.206 69.342 213.542 70.8725 219.408 70.8725C222.66 70.8725 225.306 70.5855 227.346 70.0116C229.45 69.3738 230.949 68.8318 231.841 68.3854L233.085 74.4117C232.192 74.9219 230.438 75.5277 227.824 76.2292C225.274 76.9307 222.341 77.2814 219.025 77.2814ZM202.096 47.341H229.355C229.291 44.0887 228.749 41.3147 227.729 39.0189C226.708 36.6594 225.242 34.8738 223.329 33.6622C221.48 32.3868 219.185 31.7491 216.443 31.7491C213.637 31.7491 211.182 32.4824 209.078 33.9492C206.974 35.4159 205.316 37.329 204.105 39.6885C202.957 42.0481 202.288 44.5989 202.096 47.341Z" stroke="url(#paint11_linear_5_2)" stroke-width="2" mask="url(#path-1-outside-1_5_2)"/>
<path d="M381.221 76.2292V26.6793H388.394V76.2292H381.221ZM384.855 14.8179C383.452 14.8179 382.241 14.3396 381.221 13.3831C380.264 12.4265 379.786 11.1511 379.786 9.55684C379.786 8.02634 380.264 6.78281 381.221 5.82624C382.241 4.86968 383.452 4.3914 384.855 4.3914C386.258 4.3914 387.437 4.86968 388.394 5.82624C389.414 6.78281 389.924 8.02634 389.924 9.55684C389.924 11.1511 389.414 12.4265 388.394 13.3831C387.437 14.3396 386.258 14.8179 384.855 14.8179Z" stroke="url(#paint12_linear_5_2)" stroke-width="2" mask="url(#path-1-outside-1_5_2)"/>
<path d="M404.478 76.2292V28.4011C406.454 27.8909 409.036 27.317 412.225 26.6793C415.413 26.0416 419.238 25.7227 423.702 25.7227C428.866 25.7227 432.883 26.6793 435.753 28.5924C438.622 30.5055 440.63 33.1839 441.778 36.6275C442.99 40.0074 443.595 43.9612 443.595 48.4889V76.2292H436.422V50.4977C436.422 45.97 436.008 42.3669 435.179 39.6885C434.35 37.0102 432.947 35.0652 430.97 33.8535C428.994 32.6419 426.252 32.036 422.745 32.036C420.067 32.036 417.708 32.1955 415.668 32.5143C413.627 32.8332 412.288 33.0883 411.651 33.2796V76.2292H404.478Z" stroke="url(#paint13_linear_5_2)" stroke-width="2" mask="url(#path-1-outside-1_5_2)"/>
<path d="M480.732 77.3771C475.886 77.3771 471.614 76.3567 467.916 74.3161C464.218 72.2116 461.349 69.2463 459.308 65.4201C457.268 61.53 456.248 56.9067 456.248 51.5499C456.248 46.4482 457.109 41.9524 458.83 38.0624C460.615 34.1724 463.166 31.1433 466.482 28.975C469.861 26.7431 473.91 25.6271 478.628 25.6271C481.689 25.6271 484.367 26.0735 486.662 26.9663C489.021 27.7953 490.775 28.6243 491.922 29.4533V3.24353L499 2V74.6987C497.789 75.0813 496.29 75.4958 494.505 75.9422C492.719 76.3249 490.679 76.6437 488.384 76.8988C486.152 77.2177 483.602 77.3771 480.732 77.3771ZM480.828 70.9681C483.633 70.9681 485.929 70.8406 487.714 70.5855C489.563 70.2666 490.966 69.9797 491.922 69.7246V36.1493C490.838 35.2565 489.181 34.3637 486.949 33.4709C484.717 32.5143 482.199 32.036 479.393 32.036C476.524 32.036 474.069 32.5462 472.029 33.5665C470.052 34.5231 468.426 35.8942 467.151 37.6798C465.94 39.4653 465.047 41.5379 464.473 43.8974C463.963 46.2569 463.708 48.7759 463.708 51.4543C463.708 55.5994 464.409 59.1386 465.812 62.0721C467.279 64.9418 469.287 67.1419 471.838 68.6724C474.452 70.2029 477.449 70.9681 480.828 70.9681Z" stroke="url(#paint14_linear_5_2)" stroke-width="2" mask="url(#path-1-outside-1_5_2)"/>
<defs>
<linearGradient id="paint0_linear_5_2" x1="-5.83415" y1="42.3509" x2="508.244" y2="42.3509" gradientUnits="userSpaceOnUse">
<stop stop-color="white"/>
<stop offset="1" stop-color="#009F18"/>
</linearGradient>
<linearGradient id="paint1_linear_5_2" x1="-5.83415" y1="42.3509" x2="508.244" y2="42.3509" gradientUnits="userSpaceOnUse">
<stop stop-color="white"/>
<stop offset="1" stop-color="#009F18"/>
</linearGradient>
<linearGradient id="paint2_linear_5_2" x1="-5.83415" y1="42.3509" x2="508.244" y2="42.3509" gradientUnits="userSpaceOnUse">
<stop stop-color="white"/>
<stop offset="1" stop-color="#009F18"/>
</linearGradient>
<linearGradient id="paint3_linear_5_2" x1="-5.83415" y1="42.3509" x2="508.244" y2="42.3509" gradientUnits="userSpaceOnUse">
<stop stop-color="white"/>
<stop offset="1" stop-color="#009F18"/>
</linearGradient>
<linearGradient id="paint4_linear_5_2" x1="-5.83415" y1="42.3509" x2="508.244" y2="42.3509" gradientUnits="userSpaceOnUse">
<stop stop-color="white"/>
<stop offset="1" stop-color="#009F18"/>
</linearGradient>
<linearGradient id="paint5_linear_5_2" x1="-5.83415" y1="42.3509" x2="508.244" y2="42.3509" gradientUnits="userSpaceOnUse">
<stop stop-color="white"/>
<stop offset="1" stop-color="#009F18"/>
</linearGradient>
<linearGradient id="paint6_linear_5_2" x1="-5.83415" y1="42.3509" x2="508.244" y2="42.3509" gradientUnits="userSpaceOnUse">
<stop stop-color="white"/>
<stop offset="1" stop-color="#009F18"/>
</linearGradient>
<linearGradient id="paint7_linear_5_2" x1="0" y1="71" x2="499" y2="71" gradientUnits="userSpaceOnUse">
<stop stop-color="white"/>
<stop offset="1" stop-color="#009F18"/>
</linearGradient>
<linearGradient id="paint8_linear_5_2" x1="0" y1="71" x2="499" y2="71" gradientUnits="userSpaceOnUse">
<stop stop-color="white"/>
<stop offset="1" stop-color="#009F18"/>
</linearGradient>
<linearGradient id="paint9_linear_5_2" x1="0" y1="71" x2="499" y2="71" gradientUnits="userSpaceOnUse">
<stop stop-color="white"/>
<stop offset="1" stop-color="#009F18"/>
</linearGradient>
<linearGradient id="paint10_linear_5_2" x1="0" y1="71" x2="499" y2="71" gradientUnits="userSpaceOnUse">
<stop stop-color="white"/>
<stop offset="1" stop-color="#009F18"/>
</linearGradient>
<linearGradient id="paint11_linear_5_2" x1="0" y1="71" x2="499" y2="71" gradientUnits="userSpaceOnUse">
<stop stop-color="white"/>
<stop offset="1" stop-color="#009F18"/>
</linearGradient>
<linearGradient id="paint12_linear_5_2" x1="0" y1="71" x2="499" y2="71" gradientUnits="userSpaceOnUse">
<stop stop-color="white"/>
<stop offset="1" stop-color="#009F18"/>
</linearGradient>
<linearGradient id="paint13_linear_5_2" x1="0" y1="71" x2="499" y2="71" gradientUnits="userSpaceOnUse">
<stop stop-color="white"/>
<stop offset="1" stop-color="#009F18"/>
</linearGradient>
<linearGradient id="paint14_linear_5_2" x1="0" y1="71" x2="499" y2="71" gradientUnits="userSpaceOnUse">
<stop stop-color="white"/>
<stop offset="1" stop-color="#009F18"/>
</linearGradient>
</defs>
</svg>
